HIERARCHY
ROOT Hips
{
	OFFSET 0.000000 0.000000 0.000000
	CHANNELS 6 Xposition Yposition Zposition Xrotation Yrotation Zrotation
	JOINT LeftUpLeg_virtual
	{
		OFFSET 0.000000 0.000000 0.000000
		CHANNELS 3 Xrotation Yrotation Zrotation
		JOINT LeftUpLeg
		{
			OFFSET 10.205400 -3.823500 0.155100
			CHANNELS 3 Xrotation Yrotation Zrotation
			JOINT LeftLeg
			{
				OFFSET 0.708757 -12.982077 0.567790
				CHANNELS 3 Xrotation Yrotation Zrotation
				JOINT LeftFoot
				{
					OFFSET -0.708756 -10.717838 -2.184338
					CHANNELS 3 Xrotation Yrotation Zrotation
					JOINT LeftToeBase
					{
						OFFSET 0.108149 -7.191104 7.560241
						CHANNELS 3 Xrotation Yrotation Zrotation
						JOINT LeftToe_End
						{
							OFFSET 0.070230 0.081724 4.490308
							CHANNELS 3 Xrotation Yrotation Zrotation
							End Site
							{
								OFFSET 0 0 0
							}
						}
					}
				}
			}
		}
	}
	JOINT RightUpLeg_virtual
	{
		OFFSET 0.000000 0.000000 0.000000
		CHANNELS 3 Xrotation Yrotation Zrotation
		JOINT RightUpLeg
		{
			OFFSET -10.205400 -3.823500 0.005500
			CHANNELS 3 Xrotation Yrotation Zrotation
			JOINT RightLeg
			{
				OFFSET -0.708756 -12.982134 0.610632
				CHANNELS 3 Xrotation Yrotation Zrotation
				JOINT RightFoot
				{
					OFFSET 0.708754 -10.717769 -1.945823
					CHANNELS 3 Xrotation Yrotation Zrotation
					JOINT RightToeBase
					{
						OFFSET -0.108140 -7.191069 7.372968
						CHANNELS 3 Xrotation Yrotation Zrotation
						JOINT RightToe_End
						{
							OFFSET -0.070227 0.081735 4.479403
							CHANNELS 3 Xrotation Yrotation Zrotation
							End Site
							{
								OFFSET 0 0 0
							}
						}
					}
				}
			}
		}
	}
	JOINT Spine_virtual
	{
		OFFSET 0.000000 0.000000 0.000000
		CHANNELS 3 Xrotation Yrotation Zrotation
		JOINT Spine
		{
			OFFSET 0.000000 6.876099 0.125700
			CHANNELS 3 Xrotation Yrotation Zrotation
			JOINT Spine1
			{
				OFFSET 0.000000 5.730043 0.104720
				CHANNELS 3 Xrotation Yrotation Zrotation
				JOINT Spine1_split
				{
					OFFSET 0.000000 5.730043 0.104720
					CHANNELS 3 Xrotation Yrotation Zrotation
					JOINT Spine2
					{
						OFFSET 0.000000 5.730043 0.104720
						CHANNELS 3 Xrotation Yrotation Zrotation
						JOINT Neck_virtual
						{
							OFFSET 0.000000 0.000000 0.000000
							CHANNELS 3 Xrotation Yrotation Zrotation
							JOINT Neck
							{
								OFFSET 0.000000 10.314075 0.188496
								CHANNELS 3 Xrotation Yrotation Zrotation
								JOINT Head
								{
									OFFSET 0.000000 7.643700 -2.377400
									CHANNELS 3 Xrotation Yrotation Zrotation
									JOINT HeadTop_End
									{
										OFFSET 0.000000 43.788605 -13.619600
										CHANNELS 3 Xrotation Yrotation Zrotation
										End Site
										{
											OFFSET 0 0 0
										}
									}
								}
							}
						}
						JOINT LeftShoulder_virtual
						{
							OFFSET 0.000000 0.000000 0.000000
							CHANNELS 3 Xrotation Yrotation Zrotation
							JOINT LeftShoulder
							{
								OFFSET 2.196100 4.412489 0.087492
								CHANNELS 3 Xrotation Yrotation Zrotation
								JOINT LeftShoulder_split
								{
									OFFSET 2.196100 4.412489 0.087492
									CHANNELS 3 Xrotation Yrotation Zrotation
									JOINT LeftArm
									{
										OFFSET 8.771219 -2.981674 -0.026999
										CHANNELS 3 Xrotation Yrotation Zrotation
										JOINT LeftForeArm
										{
											OFFSET 8.512804 0.000000 -0.000000
											CHANNELS 3 Xrotation Yrotation Zrotation
											JOINT LeftHand
											{
												OFFSET 18.484802 0.000000 -0.000000
												CHANNELS 3 Xrotation Yrotation Zrotation
												End Site
												{
													OFFSET 0 0 0
												}
											}
										}
									}
								}
							}
						}
						JOINT RightShoulder_virtual
						{
							OFFSET 0.000000 0.000000 0.000000
							CHANNELS 3 Xrotation Yrotation Zrotation
							JOINT RightShoulder
							{
								OFFSET -2.196100 4.412496 0.070690
								CHANNELS 3 Xrotation Yrotation Zrotation
								JOINT RightShoulder_split
								{
									OFFSET -2.196100 4.412496 0.070690
									CHANNELS 3 Xrotation Yrotation Zrotation
									JOINT RightArm
									{
										OFFSET -8.771282 -2.981682 -0.094208
										CHANNELS 3 Xrotation Yrotation Zrotation
										JOINT RightForeArm
										{
											OFFSET -8.494598 0.000000 0.000000
											CHANNELS 3 Xrotation Yrotation Zrotation
											JOINT RightHand
											{
												OFFSET -18.483803 0.000000 0.000001
												CHANNELS 3 Xrotation Yrotation Zrotation
												End Site
												{
													OFFSET 0 0 0
												}
											}
										}
									}
								}
							}
						}
					}
				}
			}
		}
	}
}
MOTION
Frames: 7
Frame Time: 0.03333333
-3.143987 30.675201 16.988806 0.000000 0.000000 0.000000 28.009732 7.496152 -18.455557 -78.024393 -7.084712 16.168366 30.263953 7.350090 -8.010646 25.966050 -3.294419 8.831784 -1.844820 0.755143 0.602029 0.000000 0.000000 0.000000 28.474244 11.188991 -20.159769 20.406980 -26.032511 -15.286943 68.397692 11.731260 0.650316 18.985056 -2.031324 16.819245 14.520823 0.141558 2.063291 0.000000 0.000000 0.000000 27.888697 8.496866 -20.233095 6.172539 13.172126 -7.957537 12.088468 11.739545 -7.268694 1.734013 1.957626 0.275209 0.000000 0.000000 0.000000 12.005841 11.024350 -7.584797 -11.089890 -6.658128 7.086360 -26.525682 -32.728040 19.305414 0.000000 0.000000 0.000000 11.577119 11.789590 -7.594711 0.012553 5.730880 5.488106 -3.894422 -0.494712 -0.971037 32.033317 -41.438263 -15.431305 0.555501 -29.345378 -0.709716 0.000000 0.000000 0.000000 11.656358 11.075733 -8.102751 5.150069 14.266296 -6.659330 0.165480 4.286719 -0.610335 -18.012560 58.642925 33.396927 -2.065834 41.082194 0.054119 0.000000 0.000000 0.000000 
-3.327715 30.550022 17.692549 0.000000 0.000000 0.000000 26.156682 8.399042 -17.740617 -78.285593 -7.105637 16.489410 35.159440 6.185841 -9.609098 22.226441 -3.737363 8.977826 -1.548653 0.710314 0.428905 0.000000 0.000000 0.000000 26.490814 11.533902 -19.245533 15.258976 -25.534912 -14.747246 66.219504 11.397795 0.241634 17.995404 -2.252535 13.427741 14.284924 0.129664 2.183240 0.000000 0.000000 0.000000 25.772717 8.667894 -19.427537 6.077319 11.731294 -8.269148 12.537061 10.843738 -7.390258 1.399228 2.104414 0.260000 0.000000 0.000000 0.000000 12.255660 10.246117 -7.718957 -11.411294 -6.423777 6.543556 -26.732484 -32.423782 19.756689 0.000000 0.000000 0.000000 11.608435 11.074067 -7.712044 0.146422 5.153972 6.391974 -3.887443 -1.404433 -1.706376 30.162375 -43.787602 -7.944623 0.831022 -27.650397 -0.427646 0.000000 0.000000 0.000000 11.893584 10.368327 -8.140532 4.921683 13.632023 -5.760141 0.745919 3.289431 -0.422624 -17.448642 54.690117 27.295961 -2.002715 39.855192 0.265283 0.000000 0.000000 0.000000 
-3.469557 30.556154 18.423082 0.000000 0.000000 0.000000 24.500046 9.068902 -17.107414 -77.981820 -6.763951 16.743886 39.467524 5.035341 -10.623706 18.576600 -4.033991 9.121598 -1.092582 0.714646 0.118452 0.000000 0.000000 0.000000 24.517039 12.001357 -18.559881 10.279513 -25.267667 -14.238567 63.188464 11.088946 -0.083465 17.035062 -2.083514 9.408464 13.518559 0.264659 2.593356 0.000000 0.000000 0.000000 23.631923 8.806708 -18.776308 6.026332 10.282172 -8.580575 12.984751 9.661224 -7.494404 1.278098 2.026293 0.197364 0.000000 0.000000 0.000000 12.581796 9.186760 -7.857369 -11.698797 -6.273044 6.009106 -26.487766 -31.839415 20.358216 0.000000 0.000000 0.000000 11.766114 10.031751 -7.809847 0.285057 4.498509 7.069814 -3.732558 -2.129051 -2.312026 26.676094 -46.881363 -2.028107 1.040718 -25.230791 -0.071795 0.000000 0.000000 0.000000 12.282082 9.374949 -8.188377 4.883854 13.182431 -5.871456 1.079618 2.286041 -0.419581 -17.397177 51.420714 22.466014 -1.872814 37.630121 0.419526 0.000000 0.000000 0.000000 
-3.561432 30.663170 19.164402 0.000000 0.000000 0.000000 22.882467 9.559800 -16.584405 -76.908224 -6.054536 17.068709 43.325946 3.955651 -10.974899 15.138416 -4.098170 9.151881 -1.182677 0.749721 -0.249968 0.000000 0.000000 0.000000 22.516217 12.496897 -18.078433 5.198479 -25.263630 -14.179060 59.741233 11.113870 -0.582613 17.017135 -1.172925 6.314032 10.469577 0.375587 3.287536 0.000000 0.000000 0.000000 21.505588 9.017289 -18.276820 6.045478 8.673779 -8.921275 13.443661 8.103202 -7.509195 1.308197 1.948383 0.101061 0.000000 0.000000 0.000000 12.959602 7.732473 -7.894009 -11.847804 -6.150930 5.561098 -25.687838 -30.742576 21.163672 0.000000 0.000000 0.000000 12.083849 8.562498 -7.830729 0.405440 3.775414 7.486297 -3.620069 -2.386216 -2.635690 21.173088 -50.310108 1.630030 1.080168 -22.128879 0.282423 0.000000 0.000000 0.000000 12.776741 7.966357 -8.160766 5.000470 12.847912 -6.991333 1.194888 1.562969 -0.627333 -17.156414 48.850517 18.117570 -1.681769 35.369872 0.469449 0.000000 0.000000 0.000000 
-3.615579 30.821136 20.011496 0.000000 0.000000 0.000000 21.182216 9.725967 -16.159107 -75.190561 -4.953947 17.668216 47.006636 3.004043 -10.694306 11.727012 -3.877983 9.257696 -1.652417 0.774074 -0.656888 0.000000 0.000000 0.000000 20.525461 12.873454 -17.747222 0.210072 -25.395955 -14.673412 55.532382 11.512586 -1.252279 17.498070 0.442882 4.672051 6.086862 0.323293 4.239132 0.000000 0.000000 0.000000 19.314448 9.283930 -17.966922 6.128644 6.840397 -9.278206 13.888696 6.194268 -7.394923 1.471360 1.847703 -0.089483 0.000000 0.000000 0.000000 13.315096 5.893453 -7.771299 -11.795304 -5.986319 5.207607 -24.415356 -29.067229 22.155973 0.000000 0.000000 0.000000 12.534498 6.661163 -7.713108 0.480794 3.044657 7.756736 -3.408222 -2.325086 -2.546343 13.602567 -53.371317 2.603691 0.877881 -18.840862 0.570159 0.000000 0.000000 0.000000 13.324619 6.141455 -8.032874 5.213543 12.442031 -8.918103 1.252082 1.035772 -0.852487 -17.112102 46.911925 14.212509 -1.489190 34.047315 0.443445 0.000000 0.000000 0.000000 
-3.615732 30.990368 20.884798 0.000000 0.000000 0.000000 19.345935 9.594256 -15.902871 -72.914960 -3.568157 18.638104 50.358063 2.194449 -9.925197 8.046522 -3.455615 9.501349 -2.079190 0.774413 -1.006422 0.000000 0.000000 0.000000 18.610341 12.992914 -17.544980 -4.210780 -25.487911 -15.411321 50.064078 12.024032 -1.953441 17.543718 2.283295 3.930584 2.338901 0.118112 5.299715 0.000000 0.000000 0.000000 17.149758 9.394525 -17.817199 6.241612 4.816875 -9.603434 14.297454 4.026506 -7.135843 1.650599 1.843972 -0.261382 0.000000 0.000000 0.000000 13.633823 3.765529 -7.465502 -11.580033 -5.758995 4.966186 -22.878096 -26.856686 23.213030 0.000000 0.000000 0.000000 13.009016 4.456438 -7.429737 0.496982 2.419704 7.978139 -3.204049 -2.153298 -2.077621 4.236657 -55.659669 1.021509 0.459464 -16.183319 0.749437 0.000000 0.000000 0.000000 13.829336 3.990547 -7.762835 5.405411 11.910650 -11.310648 1.170678 0.457274 -0.809098 -18.610729 45.594986 11.467088 -1.334778 33.935126 0.366129 0.000000 0.000000 0.000000 
-3.539832 31.154804 21.746145 0.000000 0.000000 0.000000 17.377700 9.056668 -15.804718 -70.140702 -2.025476 20.071127 53.061455 1.420625 -8.904935 3.767835 -3.000708 9.617581 -2.310167 0.755913 -1.120965 0.000000 0.000000 0.000000 16.885542 12.621393 -17.458833 -7.870652 -25.336315 -16.000140 43.389268 12.107456 -2.433197 17.006976 3.734008 3.731492 0.371971 -0.147841 6.161491 0.000000 0.000000 0.000000 15.090453 9.074732 -17.780946 6.340074 2.749468 -9.815438 14.616091 1.751524 -6.743665 1.668861 2.142186 -0.249866 0.000000 0.000000 0.000000 13.878827 1.501504 -7.007380 -11.313174 -5.399655 4.745276 -21.380490 -24.189818 24.194021 0.000000 0.000000 0.000000 13.411377 2.143888 -6.988206 0.460282 1.902585 8.279416 -3.003015 -1.867240 -1.300269 -5.849936 -57.000275 -2.324928 -0.067481 -14.698924 0.821222 0.000000 0.000000 0.000000 14.189688 1.705058 -7.339586 5.463826 11.244770 -13.610649 1.152129 -0.083935 -0.521110 -23.078926 44.783778 11.050754 -1.255327 35.009531 0.275270 0.000000 0.000000 0.000000 
